<mxfile host="app.diagrams.net" modified="2020-12-27T11:25:55.234Z" agent="5.0 (Windows NT 10.0; Win64; x64) AppleWebKit/537.36 (KHTML, like Gecko) Chrome/87.0.4280.88 Safari/537.36" etag="2WqliWMXbS9vXN1TRynC" version="14.1.2" type="github">
  <diagram id="Cu5V5KgqSv17Ko4OS9BQ" name="Page-1">
    <mxGraphModel dx="687" dy="374" grid="1" gridSize="10" guides="1" tooltips="1" connect="1" arrows="1" fold="1" page="1" pageScale="1" pageWidth="2400" pageHeight="1400" math="0" shadow="0">
      <root>
        <mxCell id="0" />
        <mxCell id="1" parent="0" />
        <mxCell id="gz2-CgeXObaSSJoPXU8p-1" value="אתה חמוס הגאנג באנג.&lt;br&gt;אתה זיינת סוס.&lt;br&gt;מה תעשה עכשיו?" style="text;html=1;align=center;verticalAlign=middle;resizable=0;points=[];autosize=1;" vertex="1" parent="1">
          <mxGeometry x="10" y="555" width="120" height="50" as="geometry" />
        </mxCell>
        <mxCell id="gz2-CgeXObaSSJoPXU8p-13" value="" style="edgeStyle=orthogonalEdgeStyle;rounded=0;orthogonalLoop=1;jettySize=auto;html=1;" edge="1" parent="1" source="gz2-CgeXObaSSJoPXU8p-2" target="gz2-CgeXObaSSJoPXU8p-12">
          <mxGeometry relative="1" as="geometry" />
        </mxCell>
        <mxCell id="gz2-CgeXObaSSJoPXU8p-2" value="תזיין עוד סוס" style="text;html=1;align=center;verticalAlign=middle;resizable=0;points=[];autosize=1;" vertex="1" parent="1">
          <mxGeometry x="190" y="570" width="80" height="20" as="geometry" />
        </mxCell>
        <mxCell id="gz2-CgeXObaSSJoPXU8p-3" value="" style="endArrow=classic;html=1;" edge="1" parent="1" source="gz2-CgeXObaSSJoPXU8p-1" target="gz2-CgeXObaSSJoPXU8p-2">
          <mxGeometry width="50" height="50" relative="1" as="geometry">
            <mxPoint x="370" y="980" as="sourcePoint" />
            <mxPoint x="420" y="930" as="targetPoint" />
          </mxGeometry>
        </mxCell>
        <mxCell id="gz2-CgeXObaSSJoPXU8p-17" value="" style="edgeStyle=orthogonalEdgeStyle;rounded=0;orthogonalLoop=1;jettySize=auto;html=1;" edge="1" parent="1" source="gz2-CgeXObaSSJoPXU8p-4" target="gz2-CgeXObaSSJoPXU8p-16">
          <mxGeometry relative="1" as="geometry" />
        </mxCell>
        <mxCell id="gz2-CgeXObaSSJoPXU8p-4" value="לך לדאנג&#39;ן" style="text;html=1;align=center;verticalAlign=middle;resizable=0;points=[];autosize=1;" vertex="1" parent="1">
          <mxGeometry x="190" y="520" width="60" height="20" as="geometry" />
        </mxCell>
        <mxCell id="gz2-CgeXObaSSJoPXU8p-7" value="" style="endArrow=classic;html=1;" edge="1" parent="1" source="gz2-CgeXObaSSJoPXU8p-1" target="gz2-CgeXObaSSJoPXU8p-4">
          <mxGeometry width="50" height="50" relative="1" as="geometry">
            <mxPoint x="340" y="620" as="sourcePoint" />
            <mxPoint x="390" y="570" as="targetPoint" />
          </mxGeometry>
        </mxCell>
        <mxCell id="gz2-CgeXObaSSJoPXU8p-15" value="" style="edgeStyle=orthogonalEdgeStyle;rounded=0;orthogonalLoop=1;jettySize=auto;html=1;" edge="1" parent="1" source="gz2-CgeXObaSSJoPXU8p-8" target="gz2-CgeXObaSSJoPXU8p-14">
          <mxGeometry relative="1" as="geometry">
            <Array as="points">
              <mxPoint x="220" y="670" />
              <mxPoint x="315" y="670" />
            </Array>
          </mxGeometry>
        </mxCell>
        <mxCell id="gz2-CgeXObaSSJoPXU8p-8" value="תקפוץ קפיצת ראש מהגג" style="text;html=1;align=center;verticalAlign=middle;resizable=0;points=[];autosize=1;" vertex="1" parent="1">
          <mxGeometry x="155" y="630" width="130" height="20" as="geometry" />
        </mxCell>
        <mxCell id="gz2-CgeXObaSSJoPXU8p-10" value="" style="endArrow=classic;html=1;" edge="1" parent="1" source="gz2-CgeXObaSSJoPXU8p-1" target="gz2-CgeXObaSSJoPXU8p-8">
          <mxGeometry width="50" height="50" relative="1" as="geometry">
            <mxPoint x="340" y="620" as="sourcePoint" />
            <mxPoint x="390" y="570" as="targetPoint" />
          </mxGeometry>
        </mxCell>
        <mxCell id="gz2-CgeXObaSSJoPXU8p-12" value="אתה מזיין עוד סוס.&lt;br&gt;במקרה לסוס יש איידס.&lt;br&gt;אתה מת." style="text;html=1;align=center;verticalAlign=middle;resizable=0;points=[];autosize=1;" vertex="1" parent="1">
          <mxGeometry x="300" y="555" width="120" height="50" as="geometry" />
        </mxCell>
        <mxCell id="gz2-CgeXObaSSJoPXU8p-14" value="אתה קופץ בטעות לתוך בריכת התנינים המלאה בלבה שיש לך בחצר.&lt;br&gt;אתה יודע מה הולך לקרות עכשיו." style="text;html=1;align=center;verticalAlign=middle;resizable=0;points=[];autosize=1;" vertex="1" parent="1">
          <mxGeometry x="155" y="700" width="330" height="30" as="geometry" />
        </mxCell>
        <mxCell id="gz2-CgeXObaSSJoPXU8p-16" value="אתה הולך לדאנג&#39;ן.&lt;br&gt;אתה מקבל בתחת חזק אך לפתע אתה נזכר כי שכחת לקנות עגבניות." style="text;html=1;align=center;verticalAlign=middle;resizable=0;points=[];autosize=1;" vertex="1" parent="1">
          <mxGeometry x="240" y="460" width="330" height="30" as="geometry" />
        </mxCell>
      </root>
    </mxGraphModel>
  </diagram>
</mxfile>
